<svg xmlns="http://www.w3.org/2000/svg" xmlns:xlink="http://www.w3.org/1999/xlink" viewBox="0 0 1867.59 459.36"><defs><style>.cls-1{isolation:isolate;}.cls-2{fill:url(#linear-gradient);}.cls-3{mix-blend-mode:multiply;opacity:0.2;}.cls-4,.cls-5{fill:#fff;}.cls-4{opacity:0.95;}</style><linearGradient id="linear-gradient" x1="17.57" y1="441.79" x2="441.79" y2="17.57" gradientUnits="userSpaceOnUse"><stop offset="0" stop-color="#3f4246"/><stop offset="1" stop-color="#a7a7a7"/></linearGradient></defs><g class="cls-1"><g id="Layer_2" data-name="Layer 2"><g id="Layer_1-2" data-name="Layer 1"><rect class="cls-2" width="459.36" height="459.36" rx="60"/><path class="cls-3" d="M298.47,231.9q21.06-9.9,32.08-28.63a80.77,80.77,0,0,0,11-41.75q0-33.9-22-56-22-22.4-64.46-22.39H204.51V59.92H144.83V83.15h-35L0,193V399.45a59.92,59.92,0,0,0,59.92,59.91H209.71l139.82-139.8Z"/><path class="cls-4" d="M298.45,231.9q21.06-9.9,32.08-28.63a80.77,80.77,0,0,0,11-41.75q0-33.9-22-56-22-22.4-64.47-22.39H204.49V59.92H144.81V83.15h-35v54.7h35V189h-35v52.14h35v78.38h59.68V241.18h35.24l41.49,78.38h68.3Zm-21.38-55.34Q270,190,252.18,189H204.49V137.85h49.92q15.63-1.28,22.66,12T277.07,176.56Z"/><polygon class="cls-5" points="152.58 393.71 152.14 393.71 128.9 360.05 120.89 360.05 120.89 409.43 129.84 409.43 129.84 375.79 130.25 375.79 153.52 409.43 161.48 409.43 161.48 360.05 152.58 360.05 152.58 393.71"/><polygon class="cls-5" points="193.72 388.45 215.23 388.45 215.23 380.95 193.72 380.95 193.72 367.55 216.89 367.55 216.89 360.05 184.78 360.05 184.78 409.43 217.09 409.43 217.09 401.93 193.72 401.93 193.72 388.45"/><path class="cls-5" d="M253.79,360.05l-17.38,49.38H246L250,397.26h18.57l4.09,12.17h9.55l-17.41-49.38Zm-1.34,30,6.67-19.89h.39l6.68,19.89Z"/><path class="cls-5" d="M330.1,409.43h10l-10.69-19.56c.32-.13.64-.27.95-.42a13.4,13.4,0,0,0,5.92-5.37,16.23,16.23,0,0,0,2-8.24,16.64,16.64,0,0,0-2-8.28,13.67,13.67,0,0,0-5.86-5.54,21,21,0,0,0-9.56-2H302.34v49.38h9V391.35h9.1Zm-18.81-41.91h8.2a13.19,13.19,0,0,1,5.47,1,6.71,6.71,0,0,1,3.16,2.84,9.18,9.18,0,0,1,1,4.5,8.88,8.88,0,0,1-1,4.43A6.47,6.47,0,0,1,325,383a13.65,13.65,0,0,1-5.45.93h-8.24Z"/><g id="Layer_1-2-2" data-name="Layer 1-2"><path d="M574.85,329.81h-57v-203h57Zm82-79h-86v-48h86Zm-3-124h57v203h-57Z"/><path d="M827.74,332.56q-25.83,0-45.85-10.45a79.67,79.67,0,0,1-31.49-28.87Q738.94,274.8,738.94,251t11.46-42.08a78.9,78.9,0,0,1,31.45-28.58q20-10.29,45.85-10.3t46,10.3a77.77,77.77,0,0,1,31.49,28.58Q916.5,227.2,916.51,251t-11.32,42.23a78.57,78.57,0,0,1-31.49,28.87Q853.57,332.55,827.74,332.56Zm0-43.82a32.81,32.81,0,0,0,17-4.36,30.61,30.61,0,0,0,11.76-12.91q4.35-8.55,4.35-20.46t-4.38-20.2a31,31,0,0,0-11.76-12.62,32.8,32.8,0,0,0-17-4.35A32.23,32.23,0,0,0,811,218.19a31.89,31.89,0,0,0-11.87,12.62q-4.5,8.28-4.49,20.17t4.49,20.46a31.52,31.52,0,0,0,11.9,12.91A32.27,32.27,0,0,0,827.74,288.74Z"/><path d="M975.1,329.81l-55.9-157h52.49l44.25,131H991.07l46-131h46.78l44.25,131h-24.25l45.69-131h48.72l-55.91,157H1089l-37.79-109h16.28l-39,109Z"/><path d="M1246.85,329.81v-203H1323q25.88,0,44.49,8.29t28.64,23.84q10,15.57,10,37.66,0,21.53-10,37.08t-28.64,23.84q-18.63,8.28-44.49,8.29h-64.55l9.36-9.8v73.8Zm21-71.83-9.59-10.17h63.64q30.51,0,46.35-13.37T1384.09,197q0-24.42-15.84-37.78t-46.35-13.37h-63.64l9.59-10.17Zm117.49,71.83-52.44-74h23.31l52.73,74Z"/><path d="M1494.51,329.28q-16.71,0-29-5.52t-18.82-15.28a39.44,39.44,0,0,1-6.51-22.5,41.12,41.12,0,0,1,5.52-21.08q5.52-9.48,18.11-15.29t33.82-5.8h51.22v15h-50.66q-21.51,0-29.86,7.64a25.83,25.83,0,0,0,1.52,39.36q9.92,7.65,27.74,7.64,17,0,29.3-7.78t18-22.5l4.53,13.87a47.33,47.33,0,0,1-19.67,23.49Q1515.74,329.29,1494.51,329.28Zm51.34.53V296.28l-1-5.51V234.34q0-19.44-11.09-29.89t-33-10.45a83.48,83.48,0,0,0-28.69,4.93A73.66,73.66,0,0,0,1449,212l-9.47-15.38a84.51,84.51,0,0,1,28.4-15.23,112.26,112.26,0,0,1,34.9-5.37q30.15,0,46.58,14.65t16.44,44.55v94.6Z"/><path d="M1621.85,329.81v-152h20v41.5l-2-7.26a50.22,50.22,0,0,1,21.53-26.55q15.12-9.15,37.51-9.14v19.81a18.52,18.52,0,0,1-2.11-.12,16.82,16.82,0,0,0-2.12-.17q-24.37-.12-38.13,14.65t-13.68,41.64v77.64Z"/><path d="M1799.1,331.4q-23.8,0-41.79-10a72.67,72.67,0,0,1-28.15-27.59Q1719,276.25,1719,253.61t9.72-40a71.85,71.85,0,0,1,26.7-27.43q17-10,38.16-10,21.45,0,38.16,9.72A69.3,69.3,0,0,1,1858,213.18q9.57,17.55,9.58,40.48a21.12,21.12,0,0,1-.15,3,22.6,22.6,0,0,0-.14,3.14H1734.85v-15h121.42l-8.13,5.91q0-16.54-7.11-29.45a52.36,52.36,0,0,0-19.29-20.17q-12.21-7.24-28.15-7.26a55,55,0,0,0-28.15,7.26A50.34,50.34,0,0,0,1746,221.41c-4.65,8.71-7,18.67-7.15,29.89v3.19c.18,11.61,2.74,21.82,7.87,30.62a53.6,53.6,0,0,0,21.47,20.6q13.79,7.41,31.49,7.4a67.93,67.93,0,0,0,26-4.93,54.08,54.08,0,0,0,20.75-15.09L1858,306.44A65.5,65.5,0,0,1,1832.65,325,85.94,85.94,0,0,1,1799.1,331.4Z"/></g></g></g></g></svg>